<svg width="64" height="64" viewBox="0 0 64 64" fill="none" xmlns="http://www.w3.org/2000/svg">
<path d="M49.9654 20.6398C49.5085 20.0679 49.0185 19.512 48.5086 18.9871L47.0739 20.3788C47.5388 20.8588 47.9867 21.3667 48.4036 21.8886L49.9654 20.6398Z" fill="#E84300"/>
<path d="M50.6076 25.2524L52.3783 24.3235C52.0364 23.6726 51.6604 23.0327 51.2615 22.4238L49.5887 23.5237C49.9527 24.0756 50.2956 24.6585 50.6076 25.2524Z" fill="#E84300"/>
<path d="M46.8993 17.4796C46.3414 17.0056 45.7554 16.5527 45.1565 16.1348L44.0117 17.7725C44.5576 18.1555 45.0935 18.5724 45.6035 19.0033L46.8993 17.4796Z" fill="#E84300"/>
<path d="M52.9007 32.9195L54.8914 32.7195C54.8194 31.9866 54.7114 31.2528 54.5705 30.5369L52.6088 30.9238C52.7347 31.5807 52.8337 32.2506 52.9007 32.9195Z" fill="#E84300"/>
<path d="M52.1241 28.9757L54.0398 28.4018C53.8308 27.7019 53.5839 27.002 53.3079 26.3241L51.4552 27.078C51.7082 27.6999 51.9331 28.3358 52.1241 28.9757Z" fill="#E84300"/>
<path d="M52.9132 36.9406L54.9039 37.1236C54.9679 36.4237 55.0039 35.7088 55.0039 34.924L53.0012 34.9999C53.0012 35.6478 52.9712 36.2997 52.9132 36.9406Z" fill="#E84300"/>
<path d="M27.1 57.4759C27.7409 57.6149 28.3948 57.7279 29.0447 57.8109L29.2976 55.8282C28.7057 55.7512 28.1088 55.6482 27.5249 55.5212L27.1 57.4759Z" fill="#E84300"/>
<path d="M31.0906 55.9799L31.0037 57.9796C31.3349 57.9929 31.6672 57.9996 32.0005 57.9996C32.3275 57.9996 32.6524 57.9926 32.9774 57.9786L32.8924 55.9789C32.2935 56.0069 31.6876 56.0059 31.0906 55.9799Z" fill="#E84300"/>
<path d="M23.3324 56.3095C23.9423 56.5575 24.5672 56.7814 25.1901 56.9734L25.78 55.0627C25.2131 54.8877 24.6432 54.6838 24.0863 54.4568L23.3324 56.3095Z" fill="#E84300"/>
<path d="M38.1996 55.0691L38.7885 56.9798C39.4144 56.7869 40.0393 56.5629 40.6472 56.3159L39.8993 54.4642C39.3444 54.6892 38.7735 54.8932 38.1996 55.0691Z" fill="#E84300"/>
<path d="M34.687 55.829L34.94 57.8127C35.5889 57.7297 36.2398 57.6127 36.8847 57.4787L36.4617 55.524C35.8758 55.651 35.2789 55.754 34.687 55.829Z" fill="#E84300"/>
<path d="M11.0867 36.9178C11.0287 36.2849 10.9997 35.639 10.9997 35.0001V34.9001L9 35.0001C9 35.7 9.032 36.4049 9.09998 37.0998L11.0867 36.9178Z" fill="#E84300"/>
<path d="M12.5509 27.0618L10.6992 26.3049C10.4233 26.9808 10.1763 27.6797 9.96533 28.3816L11.881 28.9565C12.073 28.3156 12.299 27.6787 12.5509 27.0618Z" fill="#E84300"/>
<path d="M20.0004 17.7656L18.8565 16.1259C18.2566 16.5458 17.6677 16.9987 17.1118 17.4716L18.4006 18.9994C18.9125 18.5625 19.4475 18.1485 20.0004 17.7656Z" fill="#E84300"/>
<path d="M11.4005 30.9078L9.43684 30.5199C9.29486 31.2378 9.18688 31.9717 9.11389 32.6996L11.1046 32.8995C11.1696 32.2326 11.2696 31.5627 11.4005 30.9078Z" fill="#E84300"/>
<path d="M14.4234 23.5057L12.7516 22.4059C12.3517 23.0188 11.9737 23.6577 11.6338 24.3056L13.4035 25.2364C13.7145 24.6485 14.0574 24.0656 14.4234 23.5057Z" fill="#E84300"/>
<path d="M16.9339 20.371L15.5001 18.9772C14.9912 19.5001 14.5003 20.056 14.0424 20.6269L15.6021 21.8787C16.022 21.3558 16.47 20.8489 16.9339 20.371Z" fill="#E84300"/>
<path d="M52.0007 38.9996C50.4632 39.0004 48.9431 39.3248 47.5391 39.9515C46.1352 40.5783 44.8788 41.4935 43.8517 42.6376L37.3287 37.7456C37.7634 36.9078 37.9937 35.9791 38.0008 35.0353C38.0078 34.0915 37.7915 33.1594 37.3694 32.3152C36.9473 31.4711 36.3315 30.7387 35.5722 30.1781C34.8129 29.6175 33.9317 29.2445 33.0007 29.0896V24.9486C35.8197 24.6913 38.431 23.3571 40.2914 21.2235C42.1518 19.09 43.1181 16.3214 42.9893 13.4936C42.8605 10.6658 41.6465 7.99653 39.5999 6.04097C37.5532 4.08542 34.8314 2.99414 32.0007 2.99414C29.17 2.99414 26.4482 4.08542 24.4016 6.04097C22.3549 7.99653 21.1409 10.6658 21.0121 13.4936C20.8833 16.3214 21.8496 19.09 23.71 21.2235C25.5704 23.3571 28.1817 24.6913 31.0007 24.9486V29.0896C30.0697 29.2446 29.1885 29.6178 28.4292 30.1785C27.67 30.7392 27.0541 31.4716 26.632 32.3159C26.21 33.1601 25.9936 34.0923 26.0007 35.0361C26.0078 35.98 26.238 36.9088 26.6727 37.7466L20.1507 42.6376C18.2481 40.5298 15.6062 39.2366 12.7744 39.0272C9.94268 38.8178 7.13921 39.7082 4.94725 41.5131C2.75529 43.3181 1.34363 45.8987 1.00594 48.718C0.668261 51.5374 1.43056 54.3784 3.13425 56.6499C4.83794 58.9215 7.35183 60.4488 10.1529 60.914C12.954 61.3793 15.8267 60.7466 18.1732 59.1478C20.5198 57.5489 22.1595 55.1069 22.7513 52.3297C23.3432 49.5526 22.8415 46.6542 21.3507 44.2376L27.8737 39.3466C28.9848 40.4087 30.4626 41.0015 31.9997 41.0015C33.5368 41.0015 35.0146 40.4087 36.1257 39.3466L42.6487 44.2376C41.3758 46.3102 40.8265 48.7467 41.0869 51.165C41.3473 53.5834 42.4027 55.847 44.0877 57.6012C45.7727 59.3554 47.9921 60.5009 50.398 60.8583C52.804 61.2157 55.2605 60.7648 57.3826 59.5762C59.5048 58.3876 61.1726 56.5285 62.1248 54.2902C63.0769 52.052 63.2595 49.5611 62.6441 47.2079C62.0286 44.8547 60.6497 42.7722 58.7236 41.2868C56.7976 39.8014 54.4331 38.9969 52.0007 38.9996ZM8.00072 58.0496V55.9996C8.00072 54.9387 8.42214 53.9213 9.17229 53.1712C9.92243 52.421 10.9399 51.9996 12.0007 51.9996C13.0616 51.9996 14.079 52.421 14.8291 53.1712C15.5793 53.9213 16.0007 54.9387 16.0007 55.9996V58.0496C14.7598 58.6739 13.3899 58.9991 12.0007 58.9991C10.6116 58.9991 9.24167 58.6739 8.00072 58.0496ZM10.0007 47.9996V46.9996C10.0007 46.4692 10.2114 45.9604 10.5865 45.5854C10.9616 45.2103 11.4703 44.9996 12.0007 44.9996C12.5311 44.9996 13.0399 45.2103 13.4149 45.5854C13.79 45.9604 14.0007 46.4692 14.0007 46.9996V47.9996C14.0007 48.53 13.79 49.0387 13.4149 49.4138C13.0399 49.7889 12.5311 49.9996 12.0007 49.9996C11.4703 49.9996 10.9616 49.7889 10.5865 49.4138C10.2114 49.0387 10.0007 48.53 10.0007 47.9996ZM18.0007 56.6886V55.9996C18.0001 54.9261 17.7115 53.8725 17.165 52.9485C16.6185 52.0246 15.8342 51.2642 14.8937 50.7466C15.6025 50.0075 15.999 49.0236 16.0007 47.9996V46.9996C16.0007 45.9387 15.5793 44.9213 14.8291 44.1712C14.079 43.421 13.0616 42.9996 12.0007 42.9996C10.9399 42.9996 9.92243 43.421 9.17229 44.1712C8.42214 44.9213 8.00072 45.9387 8.00072 46.9996V47.9996C8.0024 49.0236 8.3989 50.0075 9.10772 50.7466C8.16728 51.2642 7.38292 52.0246 6.83643 52.9485C6.28994 53.8725 6.00134 54.9261 6.00072 55.9996V56.6886C4.64214 55.4734 3.68454 53.8744 3.25463 52.1031C2.82473 50.3318 2.94278 48.4717 3.59317 46.769C4.24355 45.0662 5.39562 43.6011 6.89692 42.5675C8.39822 41.5338 10.178 40.9804 12.0007 40.9804C13.8234 40.9804 15.6032 41.5338 17.1045 42.5675C18.6058 43.6011 19.7579 45.0662 20.4083 46.769C21.0587 48.4717 21.1767 50.3318 20.7468 52.1031C20.3169 53.8744 19.3593 55.4734 18.0007 56.6886ZM30.0007 11.9996V10.9996C30.0007 10.4692 30.2114 9.96045 30.5865 9.58538C30.9616 9.21031 31.4703 8.99959 32.0007 8.99959C32.5311 8.99959 33.0399 9.21031 33.4149 9.58538C33.79 9.96045 34.0007 10.4692 34.0007 10.9996V11.9996C34.0007 12.53 33.79 13.0387 33.4149 13.4138C33.0399 13.7889 32.5311 13.9996 32.0007 13.9996C31.4703 13.9996 30.9616 13.7889 30.5865 13.4138C30.2114 13.0387 30.0007 12.53 30.0007 11.9996ZM32.0007 15.9996C33.0616 15.9996 34.079 16.421 34.8291 17.1712C35.5793 17.9213 36.0007 18.9387 36.0007 19.9996V22.0496C34.7598 22.6739 33.3899 22.9991 32.0007 22.9991C30.6115 22.9991 29.2417 22.6739 28.0007 22.0496V19.9996C28.0007 18.9387 28.4221 17.9213 29.1723 17.1712C29.9224 16.421 30.9398 15.9996 32.0007 15.9996ZM23.0007 13.9996C22.9975 12.4975 23.3703 11.0185 24.0851 9.69746C24.7999 8.37638 25.834 7.25521 27.0931 6.43616C28.3522 5.6171 29.7963 5.1262 31.2937 5.00821C32.7912 4.89023 34.2943 5.1489 35.6662 5.76065C37.038 6.3724 38.2349 7.31778 39.1478 8.51061C40.0607 9.70344 40.6605 11.1058 40.8926 12.5898C41.1247 14.0738 40.9817 15.5924 40.4765 17.0069C39.9714 18.4215 39.1203 19.6872 38.0007 20.6886V19.9996C38.0001 18.9261 37.7115 17.8725 37.165 16.9485C36.6185 16.0246 35.8342 15.2642 34.8937 14.7466C35.6025 14.0075 35.999 13.0236 36.0007 11.9996V10.9996C36.0007 9.93873 35.5793 8.92131 34.8291 8.17116C34.079 7.42102 33.0616 6.99959 32.0007 6.99959C30.9398 6.99959 29.9224 7.42102 29.1723 8.17116C28.4221 8.92131 28.0007 9.93873 28.0007 10.9996V11.9996C28.0024 13.0236 28.3989 14.0075 29.1077 14.7466C28.1673 15.2642 27.3829 16.0246 26.8364 16.9485C26.2899 17.8725 26.0013 18.9261 26.0007 19.9996V20.6886C25.0579 19.8477 24.3033 18.8172 23.7863 17.6645C23.2693 16.5118 23.0016 15.2629 23.0007 13.9996ZM32.0007 38.9996C31.2096 38.9996 30.4362 38.765 29.7784 38.3255C29.1206 37.8859 28.6079 37.2612 28.3052 36.5303C28.0024 35.7994 27.9232 34.9952 28.0776 34.2192C28.2319 33.4433 28.6129 32.7306 29.1723 32.1712C29.7317 31.6118 30.4444 31.2308 31.2204 31.0764C31.9963 30.9221 32.8005 31.0013 33.5314 31.3041C34.2624 31.6068 34.8871 32.1195 35.3266 32.7773C35.7661 33.4351 36.0007 34.2085 36.0007 34.9996C36.0007 36.0605 35.5793 37.0779 34.8291 37.828C34.079 38.5782 33.0616 38.9996 32.0007 38.9996ZM48.0007 58.0496V55.9996C48.0007 54.9387 48.4221 53.9213 49.1723 53.1712C49.9224 52.421 50.9398 51.9996 52.0007 51.9996C53.0616 51.9996 54.079 52.421 54.8291 53.1712C55.5793 53.9213 56.0007 54.9387 56.0007 55.9996V58.0496C54.7598 58.6739 53.3899 58.9991 52.0007 58.9991C50.6115 58.9991 49.2417 58.6739 48.0007 58.0496ZM50.0007 47.9996V46.9996C50.0007 46.4692 50.2114 45.9604 50.5865 45.5854C50.9616 45.2103 51.4703 44.9996 52.0007 44.9996C52.5311 44.9996 53.0399 45.2103 53.4149 45.5854C53.79 45.9604 54.0007 46.4692 54.0007 46.9996V47.9996C54.0007 48.53 53.79 49.0387 53.4149 49.4138C53.0399 49.7889 52.5311 49.9996 52.0007 49.9996C51.4703 49.9996 50.9616 49.7889 50.5865 49.4138C50.2114 49.0387 50.0007 48.53 50.0007 47.9996ZM58.0007 56.6886V55.9996C58.0001 54.9261 57.7115 53.8725 57.165 52.9485C56.6185 52.0246 55.8342 51.2642 54.8937 50.7466C55.6025 50.0075 55.999 49.0236 56.0007 47.9996V46.9996C56.0007 45.9387 55.5793 44.9213 54.8291 44.1712C54.079 43.421 53.0616 42.9996 52.0007 42.9996C50.9398 42.9996 49.9224 43.421 49.1723 44.1712C48.4221 44.9213 48.0007 45.9387 48.0007 46.9996V47.9996C48.0024 49.0236 48.3989 50.0075 49.1077 50.7466C48.1673 51.2642 47.3829 52.0246 46.8364 52.9485C46.2899 53.8725 46.0013 54.9261 46.0007 55.9996V56.6886C44.6421 55.4734 43.6845 53.8744 43.2546 52.1031C42.8247 50.3318 42.9428 48.4717 43.5932 46.769C44.2436 45.0662 45.3956 43.6011 46.8969 42.5675C48.3982 41.5338 50.178 40.9804 52.0007 40.9804C53.8234 40.9804 55.6032 41.5338 57.1045 42.5675C58.6058 43.6011 59.7579 45.0662 60.4083 46.769C61.0587 48.4717 61.1767 50.3318 60.7468 52.1031C60.3169 53.8744 59.3593 55.4734 58.0007 56.6886Z" fill="#E84300"/>
</svg>
