<svg width="31" height="23" viewBox="0 0 31 23" fill="none" xmlns="http://www.w3.org/2000/svg">
<g clip-path="url(#clip0_3752:53733)">
<path d="M5.6314 1.69662C7.30816 1.18232 9.237 1.74229 10.4221 3.01579C11.5705 4.24708 11.9542 6.13807 11.4178 7.73042C11.1461 8.52822 10.6228 9.28693 9.90808 9.74499C9.53053 9.98984 9.11162 10.1734 8.66336 10.2308C8.23412 10.2834 7.80387 10.2432 7.39162 10.1054C6.56713 9.82989 5.9061 9.15098 5.75168 8.28555C5.60052 7.42707 5.92685 6.51029 6.50545 5.86992C7.15453 5.16258 8.01552 4.76328 8.91978 4.48374C9.69413 4.24387 10.5006 4.09079 11.3067 4.01852C12.9963 3.86737 14.6946 4.04316 16.3212 4.52835C17.9019 4.99689 19.4128 5.76973 20.7021 6.80343C21.9881 7.83018 23.0428 9.09691 23.8368 10.541C24.5964 11.9205 25.1046 13.4519 25.3321 15.0087C25.5651 16.6138 25.5021 18.2389 25.1481 19.8222C25.0663 20.1915 24.9641 20.5534 24.8465 20.9098C24.7605 21.1793 24.4176 21.3442 24.1507 21.236C23.8684 21.1221 23.7317 20.8298 23.8252 20.5398C23.939 20.1937 24.0375 19.842 24.1207 19.4847C24.123 19.4624 24.1323 19.4368 24.1346 19.4145C24.1577 19.3188 24.1235 19.4452 24.1268 19.4522C24.1262 19.4057 24.1448 19.3546 24.1545 19.3119C24.1706 19.2194 24.1919 19.1288 24.208 19.0364C24.2385 18.8566 24.269 18.6769 24.2892 18.4934C24.3823 17.7581 24.3909 17.0326 24.3758 16.2929C24.3772 16.3049 24.3811 16.422 24.3749 16.3272C24.3754 16.31 24.3707 16.291 24.3712 16.2738C24.3707 16.2274 24.365 16.1791 24.3645 16.1327C24.3584 16.0379 24.3523 15.9432 24.3392 15.8517C24.3233 15.6725 24.3022 15.4914 24.2761 15.3084C24.2288 14.9444 24.1626 14.5851 24.0825 14.2322C24.0391 14.0489 23.9958 13.8655 23.9455 13.6854C23.9236 13.6023 23.8985 13.5122 23.8766 13.4291C23.8673 13.391 23.8528 13.3511 23.8384 13.3112C23.8287 13.2903 23.8258 13.2662 23.8161 13.2453C23.8114 13.2263 23.7779 13.1274 23.8049 13.2123C23.8287 13.2903 23.7923 13.1673 23.7826 13.1464C23.77 13.1014 23.7523 13.0545 23.7379 13.0146C23.7076 12.9227 23.6755 12.8359 23.6434 12.7491C23.5792 12.5755 23.5132 12.407 23.442 12.2367C23.2997 11.896 23.1383 11.56 22.9682 11.2324C22.8831 11.0686 22.7962 10.9099 22.7023 10.7544C22.6595 10.6811 22.6135 10.6009 22.5656 10.5257C22.5442 10.489 22.521 10.4575 22.4996 10.4208C22.4634 10.3614 22.554 10.5099 22.5177 10.4505C22.5029 10.4278 22.4847 10.3981 22.4699 10.3754C22.0702 9.75644 21.6093 9.17894 21.1024 8.64841C20.9686 8.50743 20.8311 8.37667 20.6937 8.24592C20.6769 8.22829 20.6584 8.21578 20.6365 8.19631C20.6449 8.20512 20.7271 8.28116 20.6584 8.21578C20.6282 8.1875 20.5929 8.15736 20.5627 8.12908C20.4888 8.06185 20.4131 7.99973 20.3393 7.9325C20.0434 7.68077 19.7369 7.44252 19.4127 7.22102C19.0988 7.00322 18.7742 6.7989 18.4371 6.61317C18.3558 6.56639 18.2727 6.52472 18.1915 6.47794C18.1761 6.47239 18.1576 6.45987 18.1423 6.45432C18.0559 6.40569 18.1608 6.46684 18.171 6.47054C18.1218 6.44692 18.0745 6.4182 18.0252 6.39459C17.8539 6.3094 17.6807 6.22931 17.5076 6.14923C16.8009 5.83542 16.0651 5.5862 15.3173 5.40203C15.237 5.3845 15.1232 5.33173 15.0457 5.33835C15.0578 5.33693 15.1789 5.36926 15.0782 5.34433C15.0508 5.3402 15.0304 5.3328 15.003 5.32866C14.9552 5.31712 14.9055 5.31069 14.8577 5.29915C14.6697 5.25996 14.478 5.23099 14.2914 5.20387C13.908 5.14593 13.5172 5.10843 13.1278 5.08301C12.7435 5.05944 12.362 5.06001 11.982 5.07266C11.9356 5.07319 11.8822 5.07699 11.8358 5.07752C11.8358 5.07752 11.9425 5.06993 11.8822 5.07699C11.8581 5.07981 11.8339 5.08263 11.8065 5.0785C11.7068 5.08282 11.6102 5.09412 11.5105 5.09845C11.3193 5.11592 11.1281 5.13339 10.9383 5.16293C10.5555 5.21505 10.1703 5.28947 9.79172 5.37782C9.60148 5.42454 9.41635 5.47312 9.22937 5.52681C9.17741 5.54268 9.1324 5.55529 9.08044 5.57115C8.98857 5.60148 9.17926 5.53757 9.0475 5.58235C8.94868 5.61593 8.84985 5.64952 8.75614 5.68496C8.56871 5.75583 8.38454 5.83366 8.20687 5.92542C8.12152 5.96967 8.03617 6.01392 7.95407 6.06512C7.93135 6.08002 7.91047 6.0898 7.88774 6.1047C7.82141 6.14427 7.97169 6.04838 7.91047 6.0898C7.86316 6.12471 7.8126 6.15265 7.77041 6.1894C7.60761 6.30389 7.46665 6.43785 7.31873 6.57508C7.27468 6.61694 7.35583 6.53647 7.35583 6.53647C7.34331 6.55507 7.32569 6.57181 7.30807 6.58856C7.27794 6.6239 7.24781 6.65924 7.21767 6.69458C7.16251 6.76711 7.1055 6.84476 7.0587 6.9261C7.03368 6.96329 7.01516 7.0144 6.98503 7.04974C6.98503 7.04974 7.03598 6.94099 7.00865 7.00048C7.00124 7.02093 6.98688 7.04463 6.97947 7.06508C6.93778 7.14827 6.9063 7.23516 6.87297 7.32717C6.85816 7.36806 6.8452 7.40384 6.83549 7.44658C6.82808 7.46702 6.82393 7.49443 6.81653 7.51488C6.79016 7.60362 6.82764 7.48421 6.82438 7.47725C6.82859 7.51346 6.80637 7.5748 6.79852 7.61243C6.79392 7.65702 6.78747 7.70672 6.78287 7.75131C6.77827 7.7959 6.77877 7.84234 6.77928 7.88879C6.78209 7.91293 6.78221 8.04018 6.77749 7.95752C6.77647 7.86464 6.78451 8.01788 6.78731 8.04203C6.79293 8.09032 6.8018 8.14557 6.81437 8.1906C6.81903 8.20964 6.82043 8.22171 6.82509 8.24074C6.82834 8.2477 6.82649 8.25281 6.82975 8.25978C6.84232 8.30481 6.84232 8.30481 6.82975 8.25978C6.82835 8.2477 6.81998 8.23889 6.81858 8.22682C6.82324 8.24585 6.82975 8.25978 6.83626 8.2737C6.84277 8.28762 6.84743 8.30666 6.85394 8.32058C6.86836 8.3605 6.88789 8.40226 6.90927 8.43892C6.91904 8.4598 6.93066 8.47558 6.94042 8.49646C6.95204 8.51223 7.00317 8.59436 6.95529 8.51919C6.90742 8.44403 6.97527 8.54378 6.99015 8.56651C7.01849 8.59991 7.04172 8.63145 7.07006 8.66485C7.09515 8.69128 7.11838 8.72283 7.14532 8.74415C7.16204 8.76177 7.21407 8.80953 7.14857 8.75111C7.07983 8.68573 7.15694 8.75992 7.1653 8.76873C7.22753 8.82019 7.29162 8.86654 7.35571 8.91288C7.38775 8.93605 7.42165 8.95411 7.45044 8.97033C7.46391 8.98099 7.49455 8.99209 7.50802 9.00275C7.47782 8.97446 7.39612 8.94486 7.47923 8.98654C7.63709 9.06107 7.7977 9.09612 7.95601 9.15347C7.80281 9.09797 7.92537 9.14237 7.97318 9.15391C8.01078 9.16175 8.05023 9.16448 8.08968 9.16721C8.1839 9.17821 8.27672 9.17714 8.36769 9.18118C8.4605 9.18012 8.24193 9.19345 8.37465 9.17792C8.41084 9.17369 8.45214 9.17131 8.48834 9.16707C8.57465 9.15208 8.66095 9.13709 8.74401 9.11514L8.80804 9.09786C8.80804 9.09786 8.7004 9.13982 8.7751 9.10905C8.82195 9.09134 8.86185 9.07688 8.90871 9.05916C8.99732 9.02187 9.08082 8.98274 9.16106 8.93664C9.18379 8.92174 9.28861 8.85564 9.22554 8.90218C9.15736 8.94686 9.22554 8.90218 9.24131 8.89054C9.26404 8.87565 9.2798 8.86401 9.30253 8.84912C9.37952 8.79606 9.45326 8.73604 9.52699 8.67602C9.59377 8.61926 9.65729 8.55554 9.72081 8.49182C9.77553 8.43647 9.71851 8.51412 9.69949 8.51879C9.70645 8.51553 9.74724 8.4667 9.74724 8.4667C9.77738 8.43136 9.80936 8.39091 9.8395 8.35557C9.95677 8.20724 10.0587 8.05337 10.1523 7.89068C10.1648 7.87209 10.1741 7.84653 10.1866 7.82794C10.2227 7.76008 10.1375 7.93157 10.1685 7.86187C10.1885 7.82283 10.2065 7.7889 10.2213 7.74801C10.2598 7.65785 10.2964 7.57281 10.3297 7.4808C10.3612 7.39391 10.3945 7.30191 10.4158 7.21132C10.4255 7.16857 10.4384 7.1328 10.4481 7.09005C10.4555 7.06961 10.4597 7.0422 10.4671 7.02176C10.4861 6.95346 10.4394 7.16205 10.4648 7.04405C10.5004 6.86613 10.5257 6.6845 10.5339 6.50244C10.538 6.41141 10.5403 6.32549 10.5425 6.23957C10.5401 6.19824 10.5429 6.15876 10.5405 6.11743C10.5377 6.09329 10.54 6.07099 10.5372 6.04685C10.5339 5.97626 10.5461 6.16572 10.5368 6.06403C10.5208 5.88479 10.4998 5.7037 10.4615 5.52217C10.4466 5.43581 10.4266 5.34761 10.4047 5.26451C10.3921 5.21948 10.3795 5.17445 10.367 5.12942C10.3572 5.10854 10.3544 5.08439 10.3446 5.06351C10.3525 5.0895 10.3781 5.16238 10.3558 5.09646C10.2934 4.91776 10.2223 4.74743 10.139 4.5785C10.1014 4.50704 10.0656 4.43047 10.021 4.36226C10.0093 4.34649 9.96563 4.24392 9.94846 4.24348C9.94846 4.24348 10.0228 4.35715 9.96658 4.27318C9.95171 4.25044 9.93173 4.22586 9.91871 4.19802C9.81601 4.05095 9.70124 3.9053 9.57767 3.76802C9.51588 3.69938 9.45224 3.63585 9.3886 3.57232C9.33843 3.51945 9.46756 3.6414 9.41043 3.59179C9.39696 3.58113 9.38534 3.56536 9.37188 3.55469C9.33332 3.5176 9.28781 3.48377 9.2423 3.44993C9.09414 3.33266 8.93717 3.22376 8.77651 3.12508C8.73425 3.09821 8.69014 3.07644 8.64788 3.04957C8.61909 3.03336 8.55271 3.00931 8.68178 3.06763C8.66646 3.06208 8.64788 3.04957 8.63256 3.04402C8.53924 2.99865 8.44591 2.95328 8.35073 2.91302C8.17385 2.84315 7.99511 2.77841 7.81082 2.72899C7.76811 2.7193 7.72541 2.70961 7.68455 2.69481C7.57872 2.66804 7.71705 2.7008 7.71705 2.7008C7.71705 2.7008 7.64185 2.68512 7.64696 2.68697C7.54948 2.66901 7.45711 2.65289 7.35778 2.64004C7.16934 2.61803 6.9823 2.60809 6.79156 2.60838C6.75025 2.61076 6.70384 2.6113 6.66254 2.61368C6.80317 2.62415 6.66254 2.61368 6.62124 2.61607C6.53168 2.6241 6.44026 2.63724 6.34885 2.65038C6.15906 2.67992 5.97578 2.72339 5.79391 2.77893C5.66911 2.82045 5.48341 2.75896 5.38217 2.68759C5.31062 2.59807 5.21117 2.45796 5.19573 2.32516C5.14903 2.00757 5.34049 1.78205 5.6314 1.69662Z" fill="#E84300"/>
<path d="M24.0878 18.1823C24.3033 19.278 24.5219 20.3807 24.7374 21.4764C24.4412 21.3691 24.1501 21.2636 23.8539 21.1563C24.5378 20.4963 25.2199 19.8414 25.9089 19.1832C26.0059 19.0911 26.172 19.0472 26.3005 19.0591C26.4361 19.0677 26.5939 19.1422 26.6752 19.2526C26.7566 19.363 26.8165 19.5004 26.799 19.6444C26.7797 19.7935 26.713 19.9139 26.6054 20.0195C25.9215 20.6795 25.2394 21.3344 24.5504 21.9926C24.4164 22.1233 24.1871 22.1501 24.0186 22.0891C23.8348 22.0225 23.7065 21.8662 23.672 21.6744C23.4566 20.5787 23.2379 19.4761 23.0225 18.3804C22.9679 18.1004 23.1737 17.7875 23.46 17.7467C23.7481 17.7008 24.0286 17.8833 24.0878 18.1823Z" fill="#E84300"/>
</g>
<defs>
<clipPath id="clip0_3752:53733">
<rect width="13.9063" height="26.2886" fill="white" transform="matrix(-0.340601 0.940208 0.940208 0.340601 5.72412 0.671387)"/>
</clipPath>
</defs>
</svg>
