<svg width="41" height="41" viewBox="0 0 41 41" fill="none" xmlns="http://www.w3.org/2000/svg">
<g opacity="0.15" clip-path="url(#clip0_3752:53655)">
<path d="M21.7675 27.9099C21.5992 28.2015 21.226 28.3015 20.9344 28.1332L6.68589 19.9068C5.5302 19.2396 5.12544 17.7523 5.78317 16.5911L5.79354 16.5732C6.1174 16.0122 6.6383 15.6101 7.26438 15.4406C7.89667 15.2676 8.55823 15.3537 9.1255 15.6813L15.2377 19.2102C15.1874 18.9191 15.1886 18.617 15.2505 18.3147C15.4101 17.5307 15.9524 16.8818 16.695 16.5837C17.4375 16.2856 18.2751 16.3791 18.932 16.8344L21.4523 18.5754C21.73 18.7653 21.7952 19.1452 21.608 19.4231C21.4171 19.7002 21.0364 19.7692 20.7604 19.5788L18.2401 17.8378C17.9136 17.6127 17.5168 17.5681 17.15 17.7155C16.7826 17.864 16.5227 18.1702 16.4451 18.5607C16.3522 19.0169 16.5406 19.4835 16.9258 19.7481L19.6406 21.755C19.9001 21.9471 19.9951 22.285 19.7873 22.5791C19.6103 22.8516 19.2516 22.9361 18.9717 22.7745L8.5156 16.7376C8.23143 16.5736 7.90119 16.5308 7.58504 16.6173C7.26844 16.7021 6.98697 16.8847 6.84443 17.1926C6.5161 17.7735 6.71795 18.5168 7.29579 18.8504L21.5443 27.0768C21.8359 27.2451 21.9359 27.6184 21.7675 27.9099Z" fill="black"/>
<path d="M30.4296 32.2061C30.3393 32.3624 30.1793 32.4785 29.9848 32.5056C29.6955 32.5456 22.8453 33.4614 19.0107 31.2474C15.5405 29.2439 15.8914 25.3083 15.9075 25.1415C15.9447 24.8038 16.2411 24.5637 16.573 24.5962C16.9077 24.6288 17.1527 24.9266 17.1217 25.2608C17.1098 25.3962 16.8423 28.587 19.6206 30.191C23.0961 32.1976 29.7501 31.3067 29.818 31.2966C30.1519 31.25 30.4599 31.4827 30.5048 31.8171C30.5254 31.9572 30.4948 32.093 30.4296 32.2061Z" fill="black"/>
<path d="M24.5204 16.8228C24.3521 17.1144 23.9789 17.2144 23.6873 17.0461L21.5745 15.8263C20.9914 15.4896 20.2449 15.6896 19.9082 16.2727C19.6667 16.6911 19.6941 17.2097 19.9778 17.5989C20.1774 17.8705 20.1134 18.2546 19.8453 18.4506C19.5737 18.6501 19.1915 18.59 18.9936 18.318C18.4255 17.5407 18.37 16.4974 18.8519 15.6628C19.5246 14.4976 21.0192 14.0972 22.1844 14.7699L24.2972 15.9897C24.5898 16.1586 24.6888 16.5313 24.5204 16.8228Z" fill="black"/>
<path d="M35.309 23.754C35.2309 23.8892 35.1011 23.9946 34.9389 24.0389C34.615 24.1266 34.2795 23.9343 34.1918 23.6104C34.1762 23.5521 32.5882 17.959 25.8263 14.0551L25.5179 13.877C24.9347 13.5403 24.1882 13.7403 23.8516 14.3234C23.5149 14.9066 23.7149 15.6531 24.2981 15.9897C24.5896 16.1581 24.6896 16.5313 24.5213 16.8229C24.353 17.1144 23.9797 17.2144 23.6882 17.0461C22.523 16.3734 22.1225 14.8787 22.7952 13.7135C23.4679 12.5483 24.9626 12.1479 26.1278 12.8206L26.4362 12.9987C33.6587 17.1686 35.3029 23.0448 35.3701 23.2921C35.4128 23.4547 35.3865 23.6198 35.309 23.754Z" fill="black"/>
</g>
<defs>
<clipPath id="clip0_3752:53655">
<rect width="29.2754" height="29.2754" fill="white" transform="translate(0.291504 26.0745) rotate(-60)"/>
</clipPath>
</defs>
</svg>
