<svg width="41" height="41" viewBox="0 0 41 41" fill="none" xmlns="http://www.w3.org/2000/svg">
<g clip-path="url(#clip0_3752:53668)">
<path d="M22.2895 27.8671C22.1212 28.1587 21.7479 28.2587 21.4564 28.0904L7.20786 19.864C6.05218 19.1967 5.64741 17.7095 6.30514 16.5483L6.31551 16.5303C6.63937 15.9694 7.16027 15.5673 7.78635 15.3978C8.41864 15.2248 9.0802 15.3109 9.64748 15.6384L15.7597 19.1673C15.7094 18.8763 15.7106 18.5742 15.7725 18.2718C15.9321 17.4879 16.4744 16.839 17.2169 16.5409C17.9595 16.2428 18.7971 16.3363 19.454 16.7916L21.9743 18.5326C22.252 18.7225 22.3172 19.1024 22.13 19.3803C21.9391 19.6574 21.5584 19.7263 21.2823 19.536L18.762 17.7949C18.4356 17.5699 18.0388 17.5253 17.672 17.6727C17.3046 17.8211 17.0446 18.1274 16.9671 18.5179C16.8741 18.9741 17.0626 19.4406 17.4478 19.7053L20.1626 21.7121C20.4221 21.9042 20.5171 22.2422 20.3093 22.5363C20.1323 22.8088 19.7736 22.8933 19.4937 22.7316L9.03757 16.6948C8.75341 16.5308 8.42316 16.488 8.10701 16.5745C7.79041 16.6593 7.50894 16.8419 7.36641 17.1498C7.03807 17.7306 7.23992 18.474 7.81777 18.8076L22.0663 27.034C22.3578 27.2023 22.4579 27.5756 22.2895 27.8671Z" fill="white"/>
<path d="M30.9506 32.1633C30.8603 32.3196 30.7003 32.4357 30.5058 32.4628C30.2164 32.5028 23.3663 33.4186 19.5317 31.2046C16.0614 29.2011 16.4124 25.2655 16.4285 25.0987C16.4657 24.761 16.7621 24.5209 17.094 24.5533C17.4287 24.586 17.6737 24.8838 17.6427 25.218C17.6308 25.3534 17.3633 28.5442 20.1416 30.1482C23.6171 32.1548 30.2711 31.2639 30.339 31.2538C30.6729 31.2072 30.9809 31.4399 31.0258 31.7743C31.0464 31.9143 31.0158 32.0502 30.9506 32.1633Z" fill="white"/>
<path d="M25.0425 16.78C24.8742 17.0715 24.501 17.1716 24.2094 17.0032L22.0966 15.7834C21.5135 15.4467 20.767 15.6468 20.4303 16.2299C20.1888 16.6482 20.2162 17.1669 20.4999 17.556C20.6995 17.8276 20.6355 18.2118 20.3674 18.4077C20.0958 18.6073 19.7136 18.5472 19.5157 18.2752C18.9475 17.4978 18.8921 16.4545 19.374 15.62C20.0467 14.4548 21.5413 14.0543 22.7065 14.727L24.8193 15.9468C25.1119 16.1158 25.2109 16.4884 25.0425 16.78Z" fill="white"/>
<path d="M35.83 23.7112C35.7519 23.8464 35.6221 23.9517 35.4599 23.9961C35.136 24.0837 34.8005 23.8915 34.7128 23.5676C34.6972 23.5093 33.1092 17.9162 26.3473 14.0122L26.0389 13.8341C25.4557 13.4974 24.7092 13.6975 24.3726 14.2806C24.0359 14.8637 24.2359 15.6102 24.8191 15.9469C25.1106 16.1152 25.2106 16.4885 25.0423 16.78C24.874 17.0716 24.5007 17.1716 24.2092 17.0033C23.044 16.3305 22.6435 14.8359 23.3162 13.6707C23.9889 12.5055 25.4836 12.105 26.6488 12.7777L26.9572 12.9558C34.1797 17.1257 35.8239 23.002 35.8911 23.2492C35.9338 23.4119 35.9075 23.577 35.83 23.7112Z" fill="white"/>
</g>
<defs>
<clipPath id="clip0_3752:53668">
<rect width="29.2754" height="29.2754" fill="white" transform="translate(0.812988 26.0317) rotate(-60)"/>
</clipPath>
</defs>
</svg>
