<svg width="64" height="64" viewBox="0 0 64 64" fill="none" xmlns="http://www.w3.org/2000/svg">
<g clip-path="url(#clip0_3752:28267)">
<path d="M52.8128 33.8267C52.2984 33.8267 51.8814 34.2437 51.8814 34.758C51.8814 35.4102 51.3509 35.9407 50.6988 35.9407C50.0468 35.9407 49.5162 35.4102 49.5162 34.758C49.5162 34.2435 49.0992 33.8267 48.5848 33.8267C48.0704 33.8267 47.6534 34.2437 47.6534 34.758C47.6534 36.4373 49.0197 37.8034 50.6988 37.8034C52.3779 37.8034 53.7442 36.4372 53.7442 34.758C53.7442 34.2434 53.3272 33.8267 52.8128 33.8267Z" fill="#E84300" stroke="#E84300" stroke-width="0.4"/>
<path d="M61.5555 33.9788L58.934 33.139C58.5982 33.0314 58.3336 32.7634 58.2262 32.422C57.6737 30.6654 56.84 29.0163 55.7481 27.5203C55.2505 26.8384 54.6971 26.1873 54.0926 25.5674C54.4794 23.8708 54.6896 21.9507 54.6624 20.2918C54.6234 17.9187 54.1491 16.5268 53.2126 16.0363C52.7082 15.7718 51.1733 14.9683 42.8649 18.7715C42.6681 18.8615 42.4844 18.9724 42.3143 19.0994C41.7541 18.9489 41.1816 18.8097 40.6056 18.6847C40.5363 18.6695 40.4647 18.6562 40.3949 18.6414C41.0681 17.1707 41.4613 15.5733 41.5351 13.9243C41.5581 13.4103 41.1603 12.975 40.6463 12.9522C40.1336 12.9267 39.697 13.3269 39.6741 13.8409C39.5527 16.5523 38.428 19.1034 36.5073 21.0243C35.3596 22.1719 34.0159 23.0055 32.5838 23.5305C30.1001 23.182 27.5704 23.182 25.0868 23.5305C23.6545 23.0055 22.3109 22.1719 21.1632 21.0243C19.114 18.975 17.9854 16.2504 17.9854 13.3523C17.9854 10.454 19.114 7.72953 21.1632 5.68028C23.2125 3.6309 25.9373 2.50228 28.8353 2.50228C31.7333 2.50228 34.458 3.6309 36.5073 5.68028C37.3308 6.50378 38.0113 7.44353 38.5299 8.47316C38.7613 8.93266 39.3214 9.11765 39.7808 8.88616C40.2402 8.65491 40.4251 8.09478 40.1937 7.63541C39.5859 6.42803 38.7887 5.32716 37.8246 4.3629C35.4235 1.96178 32.231 0.639404 28.8354 0.639404C25.4398 0.639404 22.2472 1.96178 19.8461 4.3629C17.445 6.76415 16.1226 9.95653 16.1226 13.3522C16.1226 16.7478 17.445 19.9403 19.8461 22.3414C20.5387 23.034 21.2922 23.6297 22.0893 24.1287C22.0895 24.1287 22.0898 24.1285 22.09 24.1285C21.5109 24.279 20.9361 24.448 20.3678 24.638C19.8799 24.8012 19.6166 25.3288 19.7798 25.8168C19.9428 26.3047 20.4706 26.5679 20.9584 26.4049C26.0379 24.7068 31.6329 24.7068 36.7124 26.4049C36.8104 26.4377 36.9099 26.4532 37.0078 26.4532C37.3974 26.4532 37.7606 26.2067 37.891 25.8168C38.0541 25.3289 37.7909 24.8012 37.303 24.638C36.7346 24.448 36.1599 24.2789 35.5807 24.1285C35.581 24.1285 35.5812 24.1287 35.5815 24.1287C36.3786 23.6297 37.132 23.034 37.8246 22.3414C38.4374 21.7287 38.9783 21.0595 39.4479 20.3484C39.7046 20.3983 39.9595 20.4505 40.2106 20.505C40.5451 20.5777 40.8781 20.6557 41.2081 20.7375C41.1978 20.778 41.1871 20.8184 41.1785 20.8595C40.7243 23.0152 40.7537 24.9217 41.2661 26.5258C41.7266 27.9677 42.5578 29.1358 43.7361 29.9979C45.125 31.0139 46.8018 31.4528 48.3206 31.4528C49.4637 31.4528 50.5176 31.204 51.2916 30.7657C52.1671 30.2698 52.9006 29.2249 53.4813 27.6562C53.7496 27.9694 54.004 28.2903 54.2438 28.6188C55.2159 29.9505 55.958 31.4183 56.4495 32.981C56.7381 33.8989 57.4546 34.6212 58.366 34.9133L60.9875 35.753C61.6754 35.9734 62.1375 36.6065 62.1375 37.3288V41.6757C62.1375 42.3979 61.6754 43.031 60.9875 43.2514L56.7639 44.6043C56.0881 44.8209 55.5163 45.2853 55.1536 45.912C53.4943 48.7798 50.8854 51.1529 47.399 52.9655C46.9963 53.1752 46.7173 53.55 46.6333 53.9943L45.2805 61.1572C45.2431 61.3545 45.0702 61.4977 44.8694 61.4977H40.471C40.2701 61.4977 40.0973 61.3544 40.0599 61.1572L39.3106 57.1985C39.1631 56.4197 38.4326 55.9023 37.6464 56.0214C35.7517 56.3079 33.7995 56.453 31.8441 56.453C30.3894 56.453 28.9532 56.3719 27.5754 56.2118C26.8135 56.1242 26.1038 56.6435 25.9614 57.3958L25.2494 61.1572C25.212 61.3545 25.0391 61.4977 24.8382 61.4977H20.4399C20.239 61.4977 20.0661 61.3544 20.0282 61.1542L18.7257 54.3889C18.6419 53.953 18.3681 53.5824 17.9743 53.372C12.0313 50.1994 8.89 44.8989 8.89 38.0439C8.89 34.5804 9.64775 31.5178 11.1421 28.9408C12.5366 26.5359 14.5734 24.5475 17.1957 23.0307C17.641 22.773 17.7931 22.2033 17.5356 21.7579C17.2781 21.3127 16.7084 21.1608 16.263 21.418C11.1781 24.3595 8.11125 28.8975 7.26687 34.6613V34.6612C7.17725 34.653 7.0875 34.6453 6.99813 34.636C7.01438 34.0142 6.90188 33.3867 6.65688 32.7777C6.1165 31.4344 5.0065 30.4649 3.82888 30.3078C2.90088 30.1835 2.01775 30.5775 1.40488 31.3873C0.51625 32.5615 0.661125 33.4908 0.939 34.0635C1.40813 35.0302 2.614 35.7139 4.61513 36.1438C4.56013 36.2262 4.49962 36.3089 4.43337 36.392C3.251 37.8749 1.858 38.2028 0.9535 38.2337C0.424 38.2515 0 38.6767 0 39.2065V39.211C0 39.7337 0.412375 40.1599 0.9345 40.1838C1.00137 40.1869 1.07125 40.1885 1.144 40.1885C2.2885 40.1885 4.12537 39.7664 5.89012 37.5535C6.16875 37.2043 6.39575 36.8358 6.57025 36.455C6.746 36.4749 6.91488 36.4919 7.07662 36.5069C7.07662 36.5065 7.07662 36.5063 7.07675 36.5059C7.045 37.0107 7.02738 37.5228 7.02738 38.0439C7.02738 41.9224 7.952 45.3805 9.77538 48.3227C11.4566 51.0352 13.8637 53.2562 16.9322 54.9264L18.1985 61.5034C18.4021 62.5794 19.3447 63.3604 20.4399 63.3604H24.8382C25.9334 63.3604 26.876 62.5794 27.0796 61.5034L27.7234 58.1024C29.0604 58.244 30.4446 58.3158 31.844 58.3158C33.764 58.3158 35.6818 58.182 37.5508 57.918L38.2294 61.5037C38.4331 62.5797 39.3757 63.3605 40.4707 63.3605H44.8691C45.9642 63.3605 46.9069 62.5795 47.1106 61.5032L48.4277 54.5293C52.1488 52.5617 54.9535 49.9769 56.7658 46.8449C56.8964 46.6192 57.0975 46.4535 57.332 46.3784L61.5555 45.0255C63.0176 44.5569 64 43.2108 64 41.6754V37.3285C64 35.7933 63.0176 34.4472 61.5555 33.9788ZM52.6598 22.9092C52.3013 25.9749 51.3396 28.5974 50.3734 29.1447C49.2751 29.7668 46.7395 29.8869 44.8358 28.4943C42.9298 27.1 42.2954 24.5928 43.001 21.2435C43.001 21.2434 43.001 21.2434 43.001 21.2434C43.0719 20.907 43.3109 20.616 43.6403 20.4653C48.3033 18.3308 50.9916 17.6327 51.9904 17.6327C52.1411 17.6327 52.2534 17.6485 52.3281 17.6778C52.6281 17.9975 53.0216 19.8152 52.6598 22.9092ZM2.61512 33.2502C2.51875 33.0514 2.74625 32.702 2.8905 32.5113C3.11913 32.2093 3.32975 32.1475 3.48887 32.1475C3.5225 32.1475 3.55387 32.1503 3.58262 32.1542C4.01087 32.2113 4.61088 32.6825 4.92875 33.4727C5.00362 33.6587 5.10087 33.9668 5.12362 34.351C3.83425 34.0839 2.8325 33.6988 2.61512 33.2502Z" fill="#E84300" stroke="#E84300" stroke-width="0.4"/>
<path d="M29.7397 12.2846V8.95162C30.8891 9.03375 31.3161 9.55912 31.7101 9.55912C32.2027 9.55912 32.4326 8.93525 32.4326 8.62325C32.4326 7.81862 30.8562 7.47387 29.7397 7.441V6.9975C29.7397 6.8005 29.4933 6.61987 29.2471 6.61987C28.9678 6.61987 28.7708 6.8005 28.7708 6.9975V7.47362C27.211 7.63787 25.6511 8.45887 25.6511 10.5277C25.6511 12.6295 27.2931 13.2206 28.7708 13.746V17.6046C27.096 17.4732 26.6527 16.3239 26.1108 16.3239C25.7003 16.3239 25.3556 16.8657 25.3556 17.2599C25.3556 18.0644 26.7348 19.1645 28.7708 19.1974V19.7064C28.7708 19.9034 28.968 20.084 29.2471 20.084C29.4935 20.084 29.7397 19.9034 29.7397 19.7064V19.1481C31.5131 18.9017 32.7281 17.7852 32.7281 15.7656C32.7281 13.5326 31.1682 12.81 29.7397 12.2846ZM28.8693 11.9727C27.9991 11.6444 27.2931 11.2996 27.2931 10.3637C27.2931 9.50987 27.9498 9.09937 28.8693 8.9845V11.9727ZM29.6411 17.5717V14.1072C30.4456 14.452 31.086 14.9117 31.086 15.9461C31.086 16.8822 30.5277 17.4076 29.6411 17.5717Z" fill="#E84300" stroke="#E84300" stroke-width="0.4"/>
</g>
<defs>
<clipPath id="clip0_3752:28267">
<rect width="64" height="64" fill="white"/>
</clipPath>
</defs>
</svg>
