<svg width="64" height="64" viewBox="0 0 64 64" fill="none" xmlns="http://www.w3.org/2000/svg">
<g clip-path="url(#clip0_3752:28300)">
<path d="M55.0063 0H52.2547C51.0451 0 51.0451 1.87527 52.2547 1.87527H55.0063C57.848 1.87527 60.1599 4.17885 60.1599 7.01026V28.7099C60.1599 31.5414 57.8481 33.845 55.0063 33.845H51.8855C51.6796 33.845 51.4794 33.9128 51.3158 34.0379L45.5892 38.4183V34.7827C45.5892 34.2648 45.1695 33.845 44.6516 33.845H33.2399C32.3054 33.845 31.4073 33.5984 30.6151 33.1294V22.6039C30.6151 20.6324 29.611 18.8905 28.0862 17.86V7.01026C28.0862 4.17885 30.3981 1.87527 33.2399 1.87527H46.3788C47.5882 1.87527 47.5882 0 46.3788 0H33.2399C29.3641 0 26.2109 3.14483 26.2109 7.01026V17.0358C25.7816 16.9333 25.3343 16.8774 24.8739 16.8774H7.70946C4.54388 16.8774 1.96838 19.4463 1.96838 22.6039V24.6286C1.96838 25.838 3.84365 25.838 3.84365 24.6286V22.6039C3.84365 20.4803 5.57778 18.7527 7.70946 18.7527H24.8741C27.0058 18.7527 28.74 20.4803 28.74 22.6039V33.5027C28.7288 33.5855 28.7293 33.6689 28.74 33.751V39.7159C28.74 39.8338 28.7329 39.9512 28.7223 40.0679H26.7886C24.6579 40.0679 22.8817 41.6058 22.5134 43.6269C22.4281 43.6591 22.3462 43.7039 22.2703 43.7625L18.0766 47.0005V44.5047C18.0766 43.9869 17.6569 43.567 17.139 43.567H7.70946C5.57778 43.567 3.84365 41.8394 3.84365 39.7159V30.2544C3.84365 29.0449 1.96838 29.0449 1.96838 30.2544V39.716C1.96838 42.8736 4.54388 45.4424 7.70946 45.4424H16.2014V48.9092C16.2014 49.6613 17.1147 50.1125 17.7122 49.6514L22.4422 45.9993V56.5477C22.4422 58.9386 24.3921 60.8837 26.7887 60.8837H32.5427V63.0716C32.5427 63.8235 33.4559 64.2752 34.0533 63.8139L37.8483 60.8837H38.9695C41.3661 60.8837 43.316 58.9385 43.316 56.5477V54.8829C43.316 53.6735 41.4407 53.6735 41.4407 54.8829V56.5477C41.4407 57.9046 40.3322 59.0084 38.9695 59.0084H37.5284C37.321 59.0084 37.1195 59.0772 36.9554 59.2038L34.4178 61.163V59.9459C34.4178 59.4281 33.9981 59.0083 33.4802 59.0083H26.7886C25.426 59.0083 24.3174 57.9044 24.3174 56.5476V44.404C24.3174 43.0471 25.4259 41.9433 26.7886 41.9433H38.9695C40.3321 41.9433 41.4407 43.0472 41.4407 44.404V49.0071C41.4407 50.2165 43.316 50.2165 43.316 49.0071V44.4042C43.316 42.0132 41.3661 40.0682 38.9695 40.0682H30.6045C30.6117 39.951 30.6153 35.2152 30.6153 35.2152C31.442 35.5476 32.3284 35.7204 33.24 35.7204H43.714V40.3161C43.714 41.0663 44.6234 41.518 45.2214 41.0608L52.2031 35.7204H55.0064C58.8821 35.7204 62.0353 32.5756 62.0353 28.71V7.01026C62.0352 3.14483 58.882 0 55.0063 0V0Z" fill="#E84300"/>
<path d="M46.4659 6.92763C45.2753 6.62371 44.0622 7.56435 44.0622 8.79452C44.0622 10.1386 43.5723 11.4339 42.6836 12.4412L40.1002 15.3645C39.9329 15.1078 39.6439 14.9379 39.3147 14.9379H34.2715C33.7535 14.9379 33.3339 15.3577 33.3339 15.8755V27.2228C33.3339 27.7406 33.7535 28.1604 34.2715 28.1604H39.3147C39.6937 28.1604 40.0192 27.9353 40.1671 27.612C41.1881 28.2358 42.3713 28.5731 43.5751 28.5731H52.4879C53.8498 28.5731 54.9734 27.3913 54.9095 26.0329C54.8811 25.4313 54.9121 17.3535 54.9121 17.1741C54.9121 15.8374 53.8246 14.7498 52.4906 14.7498L47.8558 14.7359L48.0477 14.2814C48.9247 12.2045 48.7803 9.79617 47.6619 7.83876C47.4009 7.38145 46.976 7.05802 46.4659 6.92763C46.976 7.05802 45.9556 6.79736 46.4659 6.92763C46.976 7.05802 45.2755 6.62371 46.4659 6.92763ZM38.3771 26.2852H35.2091V16.8132H38.3771V26.2852ZM52.4879 16.6249C52.7907 16.6249 53.037 16.8712 53.037 17.174C53.037 17.3524 53.0351 17.8366 53.0326 18.493C53.0187 22.1176 53.0095 25.5503 53.0362 26.1209C53.046 26.3268 52.9458 26.4641 52.8853 26.5276C52.7805 26.6374 52.6394 26.6977 52.4879 26.6977H43.5751C42.5127 26.6977 41.4729 26.3296 40.647 25.6611L40.2524 25.3415V18.0241L44.0893 13.6824C45.2811 12.3317 45.9374 10.5958 45.9374 8.7944C45.9374 8.74139 46.0098 8.72764 46.0338 8.7689C46.8642 10.222 46.9712 12.0099 46.3202 13.5517L45.5803 15.3043C45.4581 15.5935 45.4889 15.9244 45.6618 16.1862C45.8349 16.448 46.1275 16.6058 46.4411 16.6068L52.4879 16.6249Z" fill="#E84300"/>
<path d="M9.9955 32.5668C9.47755 32.5668 9.05786 32.9866 9.05786 33.5044C9.05786 34.0222 9.47755 34.442 9.9955 34.442H12.7594L12.2431 37.5649C12.1586 38.0757 12.5044 38.5584 13.0152 38.6429C13.0671 38.6515 13.1184 38.6557 13.1692 38.6557C13.6198 38.6557 14.0172 38.33 14.0932 37.8708L14.66 34.4422H16.922L16.4057 37.565C16.3212 38.0758 16.667 38.5585 17.1778 38.643C17.2297 38.6517 17.281 38.6558 17.3318 38.6558C17.7824 38.6558 18.1798 38.3301 18.2558 37.8709L18.8226 34.4423H22.5848C23.1028 34.4423 23.5224 34.0225 23.5224 33.5047C23.5224 32.9868 23.1028 32.567 22.5848 32.567H19.1327L19.5109 30.2797H22.5848C23.1028 30.2797 23.5224 29.8599 23.5224 29.3421C23.5224 28.8242 23.1028 28.4044 22.5848 28.4044H19.8209L20.3372 25.2816C20.4218 24.7708 20.0759 24.2881 19.5651 24.2036C19.0537 24.1188 18.5716 24.4649 18.4871 24.9757L17.9203 28.4043H15.6583L16.1746 25.2815C16.2592 24.7707 15.9134 24.288 15.4025 24.2034C14.8905 24.1187 14.4091 24.4647 14.3245 24.9756L13.7577 28.4042H9.9955C9.47755 28.4042 9.05786 28.824 9.05786 29.3418C9.05786 29.8596 9.47755 30.2794 9.9955 30.2794H13.4476L13.0694 32.5668H9.9955ZM15.3484 30.2794H17.6103L17.2322 32.5668H14.9702L15.3484 30.2794Z" fill="#E84300"/>
<path d="M32.8681 46.7813C32.111 46.1579 31.1037 45.912 30.0933 46.1577C28.7985 46.4721 27.4919 47.6825 27.4919 49.6777C27.4919 50.9195 27.9451 51.9974 28.8774 52.973C29.6389 53.77 30.7378 54.5279 32.4403 55.4305C32.5777 55.5034 32.7286 55.5398 32.8795 55.5398C33.0304 55.5398 33.1813 55.5034 33.3187 55.4305C36.2888 53.8559 38.2669 52.275 38.2669 49.6777C38.2669 47.6716 36.9139 46.4736 35.573 46.1762C34.5656 45.9526 33.589 46.1899 32.8681 46.7813ZM36.3915 49.6777C36.3915 51.0786 35.4622 52.1146 32.8793 53.5365C30.2965 52.1145 29.3671 51.0785 29.3671 49.6777C29.3671 48.6353 29.9707 48.1172 30.5356 47.9799C30.6398 47.9547 30.7513 47.9404 30.8659 47.9404C31.2909 47.9404 31.7581 48.1367 32.0461 48.6952C32.2103 49.0129 32.542 49.21 32.898 49.2026C33.2554 49.1955 33.5778 48.9857 33.729 48.6616C34.0324 48.0113 34.6705 47.8969 35.1666 48.0071C35.7589 48.1382 36.3915 48.6461 36.3915 49.6777Z" fill="#E84300"/>
</g>
<defs>
<clipPath id="clip0_3752:28300">
<rect width="64" height="64" fill="white"/>
</clipPath>
</defs>
</svg>
