<svg width="56" height="42" viewBox="0 0 56 42" fill="none" xmlns="http://www.w3.org/2000/svg">
<g clip-path="url(#clip0_3639:1999)">
<path d="M9.73078 2.05503C12.8763 1.12543 16.4726 2.20965 18.6644 4.61393C20.7883 6.93858 21.4696 10.4822 20.4359 13.4497C19.9125 14.9365 18.9194 16.3453 17.574 17.1882C16.8633 17.6388 16.0763 17.9741 15.237 18.0727C14.4332 18.163 13.6294 18.0795 12.8611 17.8139C11.3246 17.2828 10.1014 16.0005 9.82924 14.3791C9.56303 12.7708 10.1909 11.0626 11.2852 9.87619C12.5126 8.56585 14.1304 7.83567 15.8268 7.33026C17.2795 6.89655 18.7906 6.62577 20.2993 6.50609C23.462 6.25586 26.6345 6.61719 29.6671 7.55576C32.6141 8.4623 35.4248 9.93656 37.816 11.8944C40.2012 13.8392 42.1492 16.2283 43.6064 18.9441C45.0004 21.5385 45.9214 24.412 46.3169 27.3277C46.722 30.3339 46.573 33.3717 45.8805 36.3257C45.7204 37.0148 45.5223 37.6897 45.2957 38.3539C45.1295 38.8562 44.4853 39.1581 43.9881 38.9505C43.4624 38.7322 43.2124 38.1828 43.3928 37.6424C43.6123 36.9972 43.8033 36.3414 43.9658 35.6749C43.9705 35.6333 43.9883 35.5856 43.993 35.544C44.0381 35.3655 43.9717 35.6011 43.9776 35.6142C43.9775 35.5274 44.0132 35.4321 44.0321 35.3524C44.0641 35.1798 44.1056 35.0108 44.1376 34.8382C44.198 34.5026 44.2585 34.167 44.2998 33.8243C44.488 32.451 44.518 31.0946 44.504 29.7108C44.5064 29.7334 44.5113 29.9524 44.5017 29.7751C44.5029 29.743 44.4945 29.7073 44.4957 29.6752C44.4956 29.5883 44.4861 29.4979 44.486 29.411C44.4764 29.2338 44.4667 29.0565 44.444 28.8852C44.4177 28.5497 44.3818 28.2106 44.3364 27.868C44.2551 27.1863 44.1381 26.513 43.995 25.8517C43.9175 25.5079 43.84 25.1642 43.7494 24.8264C43.71 24.6705 43.6647 24.5016 43.6254 24.3458C43.6087 24.2745 43.5825 24.1995 43.5563 24.1246C43.5384 24.0854 43.5336 24.0402 43.5158 24.0009C43.5074 23.9652 43.4467 23.7797 43.4955 23.9391C43.5384 24.0854 43.4729 23.8546 43.455 23.8154C43.4324 23.7309 43.4002 23.6429 43.374 23.568C43.3192 23.3955 43.2608 23.2326 43.2025 23.0697C43.0857 22.7438 42.9654 22.4275 42.8356 22.1076C42.576 21.4678 42.2807 20.8363 41.9688 20.2204C41.8128 19.9124 41.6533 19.614 41.4807 19.3215C41.4021 19.1836 41.3176 19.0326 41.2295 18.8911C41.1902 18.8221 41.1474 18.7627 41.1081 18.6937C41.0414 18.582 41.2081 18.8614 41.1414 18.7496C41.114 18.7068 41.0807 18.6509 41.0533 18.6081C40.3178 17.443 39.4669 16.3542 38.5293 15.3523C38.2818 15.0861 38.0272 14.839 37.7726 14.5918C37.7416 14.5585 37.7071 14.5348 37.6667 14.4979C37.6822 14.5146 37.8344 14.6584 37.7071 14.5348C37.6512 14.4813 37.5858 14.4243 37.5299 14.3708C37.393 14.2437 37.2527 14.126 37.1158 13.9989C36.5674 13.5225 35.9987 13.071 35.3968 12.6506C34.8139 12.2373 34.2108 11.8489 33.584 11.4951C33.4329 11.4061 33.2783 11.3266 33.1272 11.2375C33.0987 11.2268 33.0642 11.2031 33.0357 11.1924C32.8751 11.0998 33.0702 11.2162 33.0892 11.2233C32.9976 11.1782 32.9096 11.1236 32.818 11.0785C32.4992 10.9159 32.1769 10.7628 31.8546 10.6097C30.5391 10.0093 29.1679 9.52911 27.7729 9.17033C27.6231 9.13601 27.4114 9.03514 27.2663 9.04602C27.2889 9.04362 27.5148 9.1064 27.327 9.05785C27.2758 9.04958 27.2378 9.03535 27.1866 9.02709C27.0974 9.00459 27.0047 8.99162 26.9155 8.96912C26.5647 8.89222 26.2067 8.83436 25.8583 8.78007C25.1425 8.66436 24.4123 8.58674 23.6846 8.53172C22.9664 8.48026 22.253 8.47401 21.542 8.49036C21.4552 8.49047 21.3553 8.49654 21.2685 8.49665C21.2685 8.49665 21.4683 8.48451 21.3553 8.49655C21.3101 8.50136 21.265 8.50618 21.2138 8.49791C21.0272 8.50409 20.8464 8.52335 20.6598 8.52954C20.3019 8.55854 19.944 8.58754 19.5885 8.63914C18.8716 8.72927 18.15 8.86105 17.4402 9.01899C17.0836 9.10272 16.7364 9.19001 16.3857 9.28682C16.2882 9.3155 16.2038 9.33821 16.1064 9.36689C15.934 9.42184 16.2918 9.30598 16.0445 9.38719C15.8591 9.44811 15.6736 9.50902 15.4977 9.57349C15.1459 9.70243 14.7999 9.84445 14.4659 10.0126C14.3055 10.0937 14.145 10.1748 13.9905 10.269C13.9477 10.2964 13.9085 10.3143 13.8657 10.3418C13.7409 10.4145 14.0238 10.2381 13.9085 10.3143C13.8193 10.3787 13.7243 10.43 13.6446 10.4979C13.338 10.7089 13.0718 10.9567 12.7926 11.2105C12.7094 11.2879 12.8627 11.139 12.8627 11.139C12.8389 11.1735 12.8057 11.2045 12.7724 11.2355C12.7154 11.301 12.6583 11.3665 12.6013 11.432C12.4967 11.5666 12.3886 11.7107 12.2996 11.8619C12.252 11.931 12.2164 12.0262 12.1594 12.0917C12.1594 12.0917 12.2568 11.8893 12.2045 12.0001C12.1903 12.0382 12.163 12.0822 12.1487 12.1203C12.0692 12.2751 12.0086 12.437 11.9445 12.6084C11.916 12.6846 11.8911 12.7512 11.8722 12.831C11.8579 12.8691 11.8496 12.9202 11.8354 12.9583C11.7844 13.1238 11.8567 12.9012 11.8508 12.8881C11.858 12.9559 11.8152 13.0702 11.7998 13.1404C11.7904 13.2237 11.7773 13.3165 11.7679 13.3998C11.7584 13.4831 11.7585 13.57 11.7585 13.6569C11.7633 13.7021 11.7611 13.94 11.7539 13.7854C11.7538 13.6116 11.7658 13.8984 11.7706 13.9436C11.7802 14.034 11.7957 14.1375 11.8184 14.2219C11.8267 14.2576 11.8291 14.2802 11.8375 14.3159C11.8434 14.329 11.8398 14.3385 11.8458 14.3516C11.8684 14.4361 11.8684 14.4361 11.8458 14.3516C11.8434 14.329 11.8279 14.3124 11.8255 14.2898C11.8339 14.3254 11.8458 14.3516 11.8577 14.3778C11.8696 14.4039 11.878 14.4396 11.8899 14.4658C11.9161 14.5407 11.9518 14.6192 11.9911 14.6881C12.0089 14.7274 12.0304 14.7571 12.0482 14.7963C12.0696 14.8261 12.1637 14.9806 12.0756 14.8391C11.9875 14.6977 12.1125 14.8855 12.1399 14.9283C12.1922 14.9913 12.2351 15.0507 12.2874 15.1137C12.3338 15.1636 12.3767 15.2231 12.4266 15.2635C12.4576 15.2968 12.554 15.3871 12.4326 15.2766C12.3053 15.153 12.4481 15.2932 12.4635 15.3098C12.5789 15.4073 12.6979 15.4952 12.8169 15.5831C12.8763 15.627 12.9394 15.6614 12.9929 15.6923C13.0179 15.7125 13.075 15.7338 13.1 15.754C13.044 15.7006 12.8918 15.6436 13.0464 15.7232C13.3402 15.8656 13.6399 15.9342 13.9348 16.0445C13.6494 15.9378 13.8777 16.0232 13.9669 16.0457C14.0371 16.061 14.1108 16.0669 14.1845 16.0727C14.3605 16.0951 14.5341 16.0949 14.7042 16.1042C14.8778 16.104 14.4688 16.1247 14.7172 16.0983C14.785 16.091 14.8623 16.0874 14.9301 16.0801C15.0918 16.0538 15.2534 16.0274 15.4092 15.9879L15.5293 15.9569C15.5293 15.9569 15.3272 16.0333 15.4674 15.9772C15.5554 15.9449 15.6303 15.9187 15.7183 15.8864C15.8847 15.8184 16.0416 15.7468 16.1925 15.6621C16.2353 15.6347 16.4326 15.5131 16.3138 15.5989C16.1854 15.6812 16.3138 15.5989 16.3435 15.5775C16.3863 15.5501 16.416 15.5286 16.4588 15.5012C16.6038 15.4034 16.7428 15.2926 16.8819 15.1818C17.0078 15.0769 17.1278 14.959 17.2478 14.841C17.3512 14.7386 17.2431 14.8827 17.2075 14.8911C17.2205 14.8851 17.2978 14.7946 17.2978 14.7946C17.3548 14.7291 17.4154 14.654 17.4724 14.5885C17.6946 14.3134 17.8882 14.0276 18.0664 13.7252C18.0901 13.6906 18.1079 13.643 18.1317 13.6085C18.2005 13.4823 18.0379 13.8013 18.0972 13.6716C18.1352 13.5989 18.1697 13.5358 18.1982 13.4597C18.2718 13.2918 18.3418 13.1335 18.4059 12.9621C18.4664 12.8002 18.5305 12.6287 18.572 12.4597C18.591 12.38 18.6159 12.3133 18.6349 12.2336C18.6492 12.1955 18.6574 12.1443 18.6717 12.1062C18.7085 11.9789 18.6172 12.3681 18.667 12.1479C18.7369 11.8158 18.7878 11.4767 18.8066 11.1364C18.816 10.9662 18.8218 10.8056 18.8277 10.6449C18.8241 10.5676 18.83 10.4938 18.8263 10.4165C18.8216 10.3713 18.8263 10.3296 18.8215 10.2844C18.8167 10.1524 18.8359 10.5069 18.8203 10.3166C18.794 9.98106 18.7581 9.64201 18.6901 9.3018C18.6638 9.14002 18.628 8.97468 18.5887 8.81886C18.566 8.73441 18.5434 8.64996 18.5207 8.56551C18.5029 8.52627 18.4981 8.48106 18.4802 8.44182C18.4945 8.49059 18.541 8.62736 18.5005 8.50367C18.3873 8.16828 18.2575 7.84838 18.1051 7.53088C18.036 7.39652 17.9705 7.25263 17.8884 7.12423C17.867 7.09452 17.7872 6.90186 17.7551 6.90071C17.7551 6.90071 17.892 7.11471 17.7884 6.95659C17.7611 6.91379 17.7242 6.86744 17.7004 6.81511C17.5111 6.53812 17.2993 6.26354 17.0708 6.00444C16.9566 5.87489 16.8388 5.75486 16.721 5.63484C16.6282 5.53501 16.8673 5.76554 16.7615 5.67167C16.7365 5.65148 16.7151 5.62176 16.6901 5.60156C16.6187 5.53145 16.5342 5.46731 16.4498 5.40316C16.175 5.18101 15.8835 4.97434 15.5849 4.78672C15.5064 4.73565 15.4244 4.69411 15.3459 4.64305C15.2923 4.61218 15.1686 4.56593 15.4089 4.67747C15.3803 4.6668 15.3459 4.64305 15.3173 4.63238C15.1437 4.54573 14.97 4.45909 14.7928 4.38198C14.4633 4.24794 14.1303 4.12342 13.7866 4.02747C13.707 4.00853 13.6273 3.98959 13.5512 3.96113C13.3538 3.90903 13.6118 3.97296 13.6118 3.97296C13.6118 3.97296 13.4715 3.9422 13.481 3.94575C13.2991 3.91028 13.1266 3.87837 12.9411 3.85243C12.5892 3.80765 12.2396 3.78548 11.8829 3.78236C11.8056 3.78602 11.7188 3.78613 11.6415 3.7898C11.9043 3.81208 11.6415 3.7898 11.5642 3.79346C11.3966 3.80676 11.2254 3.82958 11.0542 3.8524C10.6987 3.904 10.3551 3.98177 10.0139 4.08214C9.77972 4.15739 9.43364 4.03884 9.24569 3.90343C9.11359 3.73464 8.93031 3.47073 8.90399 3.22209C8.82274 2.62728 9.18512 2.2092 9.73078 2.05503Z" fill="white"/>
<path d="M43.929 33.2361C44.3108 35.2893 44.6986 37.3555 45.0804 39.4087C44.5286 39.2023 43.9863 38.9995 43.4344 38.7932C44.7261 37.572 46.0142 36.3604 47.3154 35.1427C47.4984 34.9724 47.8099 34.8935 48.05 34.9181C48.3033 34.9369 48.5971 35.0793 48.7471 35.2873C48.897 35.4953 49.0066 35.7534 48.9711 36.0223C48.932 36.3008 48.8049 36.5247 48.6018 36.72C47.3101 37.9412 46.022 39.1529 44.7208 40.3705C44.4677 40.6123 44.0385 40.6581 43.7245 40.5407C43.382 40.4126 43.1452 40.1178 43.0843 39.7586C42.7025 37.7054 42.3147 35.6392 41.9328 33.586C41.8362 33.0614 42.227 32.4803 42.7632 32.4094C43.303 32.329 43.824 32.6758 43.929 33.2361Z" fill="white"/>
</g>
<defs>
<clipPath id="clip0_3639:1999">
<rect width="26.0071" height="49.1641" fill="white" transform="matrix(-0.350233 0.936663 0.936663 0.350233 9.92285 0.136719)"/>
</clipPath>
</defs>
</svg>
