<svg width="18" height="18" viewBox="0 0 18 18" fill="none" xmlns="http://www.w3.org/2000/svg">
<path d="M8.85011 8.175C7.14761 7.7325 6.60011 7.275 6.60011 6.5625C6.60011 5.745 7.35761 5.175 8.62511 5.175C9.96011 5.175 10.4551 5.8125 10.5001 6.75H12.1576C12.1051 5.46 11.3176 4.275 9.75011 3.8925V2.25H7.50011V3.87C6.04511 4.185 4.87511 5.13 4.87511 6.5775C4.87511 8.31 6.30761 9.1725 8.40011 9.675C10.2751 10.125 10.6501 10.785 10.6501 11.4825C10.6501 12 10.2826 12.825 8.62511 12.825C7.08011 12.825 6.47261 12.135 6.39011 11.25H4.74011C4.83011 12.8925 6.06011 13.815 7.50011 14.1225V15.75H9.75011V14.1375C11.2126 13.86 12.3751 13.0125 12.3751 11.475C12.3751 9.345 10.5526 8.6175 8.85011 8.175Z" fill="black"/>
</svg>
