<svg width="41" height="37" viewBox="0 0 41 37" fill="none" xmlns="http://www.w3.org/2000/svg">
<path fill-rule="evenodd" clip-rule="evenodd" d="M6.61065 11.1378L11.0069 18.5955C11.4314 19.222 11.492 20.0871 11.0676 20.6539V20.7434C10.2793 22.6227 7.6415 22.7122 6.61065 20.982L2.21437 13.5242C0.27395 10.3025 0.607461 6.27529 3.00267 3.38167C5.39788 0.398565 9.64256 -0.794678 13.3112 0.547721C15.3122 1.32333 17.0708 2.72539 18.1016 4.54509L18.8293 5.79799C19.1628 6.27529 19.1628 6.90174 18.8293 7.37904L16.8282 10.8096C16.7688 10.9071 16.7223 10.9408 16.6718 10.9775C16.6451 10.997 16.6172 11.0172 16.5856 11.0483C16.3431 11.1378 16.0096 11.0483 15.858 10.8096L13.7963 7.28955C12.6745 5.46985 10.2793 4.54509 8.2782 5.55934C8.2782 5.55934 8.21756 5.64884 8.12661 5.64884C6.12554 6.75259 5.48884 9.2584 6.61065 11.1378ZM22.8476 4.97667C23.9019 3.09759 25.7004 1.69573 27.747 0.979888C31.499 -0.362316 35.8402 0.741274 38.0728 4.02222C40.5225 6.85576 40.8326 10.942 38.879 14.1633L34.3828 21.62C33.3285 23.35 30.6308 23.2008 29.8245 21.3814V21.2919C29.4834 20.5164 29.5765 19.7409 29.9796 19.0251L34.3208 11.807C35.4681 9.92791 35.003 7.39264 33.1114 6.2294C33.1114 6.2294 33.0494 6.2294 32.9564 6.13992C30.9098 5.03633 28.3982 5.75217 27.2508 7.63125L16.708 25.1396C15.5606 27.1081 16.3048 29.5241 18.2584 30.6277C19.5917 31.4032 21.2972 31.3137 22.5996 30.5382C24.5531 29.2557 24.9562 26.7502 23.8089 24.8711L22.0104 21.8884C21.6693 21.4112 21.6693 20.7849 22.0104 20.3076L24.057 16.8477C24.1177 16.7503 24.1653 16.7165 24.2169 16.6798C24.2443 16.6604 24.2728 16.6401 24.305 16.6091C24.5531 16.5196 24.8942 16.6091 25.0492 16.8477L28.5222 22.5446C29.4214 23.8868 29.8245 25.4378 29.8245 27.0186C29.8245 31.9699 25.6694 36.0562 20.522 36.0562H20.429C18.7855 35.9667 17.1731 35.5789 15.7777 34.8034C11.2815 32.298 9.73104 26.8099 12.3358 22.485L22.8476 4.97667Z" fill="#E84300"/>
</svg>
