<svg width="218" height="218" viewBox="0 0 218 218" fill="none" xmlns="http://www.w3.org/2000/svg">
<g clip-path="url(#clip0_94:2560)">
<path d="M214.807 81.9643V201.633H53.8927C51.1976 201.633 49.0176 199.449 49.0176 196.758V65.4782C49.0176 62.783 51.1976 60.603 53.8927 60.603H113.016C114.306 60.603 115.545 61.114 116.461 62.0294L130.094 75.6628C131.009 76.5782 132.248 77.0891 133.543 77.0891H209.931C212.622 77.0891 214.807 79.2734 214.807 81.9643Z" fill="white"/>
<path d="M137.133 100.859C143.696 100.859 149.017 95.5378 149.017 88.974C149.017 82.4101 143.696 77.0891 137.133 77.0891C130.569 77.0891 125.248 82.4101 125.248 88.974C125.248 95.5378 130.569 100.859 137.133 100.859Z" fill="#FFECE4"/>
<path d="M93.507 117.027C95.6529 119.169 94.1372 122.839 91.1014 122.839H53.5734C52.0363 122.839 50.5163 122.762 49.0176 122.617V65.4782C49.0176 62.783 51.1976 60.603 53.8927 60.603H96.2618C98.2374 65.7166 99.3231 71.2773 99.3231 77.0891C99.3231 89.7219 94.201 101.158 85.9239 109.44L93.507 117.027Z" fill="#FFECE4"/>
<path d="M214.807 81.9643V201.633H198.619V81.9643C198.619 79.2734 196.439 77.0891 193.743 77.0891H209.931C212.622 77.0891 214.807 79.2734 214.807 81.9643Z" fill="#FFECE4"/>
<path d="M165.086 140.5L214.806 201.634H51.3334C49.8661 201.634 48.4772 200.974 47.5516 199.836L4.29734 146.652C1.70691 143.466 3.97332 138.701 8.07909 138.701H161.304C162.771 138.701 164.16 139.362 165.086 140.5Z" fill="#E84300"/>
<path d="M214.807 201.633H193.841L144.123 140.5C143.195 139.363 141.807 138.699 140.343 138.699H161.304C162.772 138.699 164.161 139.363 165.084 140.5L214.807 201.633Z" fill="#B93500"/>
<path d="M177.785 187.295H134.774C133.445 187.295 132.192 186.673 131.386 185.615L120.363 171.132C119.296 169.73 120.296 167.714 122.057 167.714H165.068C166.398 167.714 167.651 168.335 168.457 169.393L179.48 183.877C180.546 185.278 179.546 187.295 177.785 187.295Z" fill="#F8F3F1"/>
<path d="M177.786 187.294H163.948C165.71 187.294 166.711 185.28 165.642 183.875L154.619 169.394C153.814 168.334 152.562 167.712 151.234 167.712H165.068C166.4 167.712 167.652 168.334 168.457 169.394L179.48 183.875C180.545 185.28 179.548 187.294 177.786 187.294Z" fill="#EFE2DD"/>
<path d="M99.3227 62.1151C99.3227 36.8482 78.8399 16.3654 53.5734 16.3654C28.3299 16.3654 7.82324 36.8721 7.82324 62.1155C7.82367 87.3824 28.3061 107.865 53.573 107.865H91.101C94.1351 107.865 95.6547 104.196 93.5092 102.051L85.9231 94.4648C94.2019 86.186 99.3227 74.7488 99.3227 62.1151Z" fill="white"/>
<path d="M93.507 102.052C95.6529 104.198 94.1372 107.864 91.1014 107.864H75.6712C78.7027 107.864 80.2228 104.198 78.0768 102.052L73.3729 97.3459C71.8081 95.7803 71.7089 93.2814 73.1353 91.5889C79.8468 83.6286 83.893 73.3423 83.893 62.1145C83.893 39.4802 67.4537 20.6821 45.8625 17.0162C47.9518 16.6577 50.0888 16.4444 52.2628 16.3831C77.8486 15.6622 98.891 35.7432 99.3167 61.3353C99.5322 74.2764 94.3709 86.0181 85.9239 94.4651L93.507 102.052Z" fill="#FFECE4"/>
<path d="M62.6055 62.1156L71.1161 53.605C73.6103 51.1108 73.6103 47.0672 71.1161 44.5729C68.6222 42.0787 64.5782 42.0787 62.084 44.5729L53.5734 53.0835L45.0629 44.5729C42.5691 42.0787 38.5251 42.0787 36.0308 44.5729C33.5366 47.0667 33.5366 51.1108 36.0308 53.605L44.5413 62.1156L36.0308 70.6261C33.5366 73.1203 33.5366 77.1639 36.0308 79.6582C37.2779 80.9053 38.9125 81.5291 40.5467 81.5291C42.1808 81.5291 43.8158 80.9057 45.0625 79.6582L53.573 71.1477L62.0835 79.6582C63.3306 80.9053 64.9648 81.5291 66.5994 81.5291C68.2335 81.5291 69.8685 80.9053 71.1152 79.6582C73.6094 77.1644 73.6094 73.1203 71.1152 70.6261L62.6055 62.1156Z" fill="#E84300"/>
<path d="M137.133 90.7985C143.696 90.7985 149.017 85.4774 149.017 78.9136C149.017 72.3498 143.696 67.0288 137.133 67.0288C130.569 67.0288 125.248 72.3498 125.248 78.9136C125.248 85.4774 130.569 90.7985 137.133 90.7985Z" fill="#B5E8E0"/>
<path d="M149.016 78.9124C149.016 85.4784 143.694 90.8011 137.133 90.8011C134.934 90.8011 132.87 90.2037 131.105 89.1554C135.77 88.0799 139.246 83.9034 139.246 78.9124C139.246 73.9265 135.776 69.7445 131.11 68.6694C132.876 67.6267 134.934 67.0293 137.133 67.0293C143.694 67.0289 149.016 72.3516 149.016 78.9124Z" fill="#59A1A5"/>
<path d="M178.754 64.6639C183.934 64.6639 188.133 60.4649 188.133 55.2852C188.133 50.1055 183.934 45.9065 178.754 45.9065C173.574 45.9065 169.375 50.1055 169.375 55.2852C169.375 60.4649 173.574 64.6639 178.754 64.6639Z" fill="#B5E8E0"/>
<path d="M188.132 55.2843C188.132 60.4661 183.932 64.666 178.754 64.666C177.018 64.666 175.39 64.1947 173.997 63.3674C177.679 62.5188 180.422 59.2228 180.422 55.2843C180.422 51.3497 177.683 48.0495 174.001 47.2009C175.394 46.3778 177.018 45.9065 178.754 45.9065C183.932 45.9065 188.132 50.1068 188.132 55.2843Z" fill="#59A1A5"/>
<path d="M218 81.9656C218 77.5171 214.38 73.8975 209.931 73.8975H189.828C188.064 73.8975 186.635 75.3273 186.635 77.0909C186.635 78.8544 188.064 80.2842 189.828 80.2842H209.931C210.858 80.2842 211.613 81.0382 211.613 81.9656V192.647L167.563 138.485C166.024 136.593 163.743 135.508 161.304 135.508H124.093C122.329 135.508 120.899 136.938 120.899 138.701C120.899 140.465 122.329 141.895 124.093 141.895H161.304C161.812 141.895 162.287 142.121 162.608 142.515L208.093 198.441H51.3338C50.8254 198.441 50.3498 198.215 50.0292 197.82L6.77447 144.637C6.16987 143.893 6.42363 143.142 6.56073 142.854C6.69783 142.565 7.12063 141.895 8.07905 141.895H108.327C110.091 141.895 111.521 140.465 111.521 138.701C111.521 136.938 110.091 135.508 108.327 135.508H52.2096V111.038C52.6626 111.05 53.1169 111.058 53.5729 111.058H91.1009C93.7795 111.058 96.1728 109.459 97.1976 106.985C98.2225 104.51 97.6613 101.687 95.767 99.7929L90.3669 94.3927C97.8567 85.8793 102.103 75.174 102.485 63.7956H113.014C113.463 63.7956 113.886 63.9705 114.203 64.2878L123.163 73.2478C122.45 74.9982 122.054 76.9099 122.054 78.9132C122.054 87.2273 128.818 93.9912 137.132 93.9912C144.983 93.9912 151.45 87.9576 152.145 80.2842H174.063C175.826 80.2842 177.256 78.8544 177.256 77.0909C177.256 75.3273 175.826 73.8975 174.063 73.8975H151.349C149.277 68.0427 143.688 63.8356 137.133 63.8356C133.16 63.8356 129.544 65.382 126.848 67.9017L118.719 59.772C117.195 58.2481 115.169 57.4089 113.014 57.4089H102.284C101.501 49.2037 98.681 41.3682 93.9966 34.5187C93.0007 33.063 91.0136 32.69 89.5579 33.6854C88.1022 34.6809 87.7292 36.6684 88.7246 38.1242C93.5687 45.207 96.1293 53.5032 96.1293 62.115C96.1293 73.482 91.7025 84.169 83.6647 92.2068C82.4176 93.4539 82.4176 95.4759 83.6647 96.7226L91.2508 104.309C91.3044 104.362 91.3513 104.409 91.2968 104.54C91.2427 104.671 91.1767 104.671 91.1009 104.671H53.5729C30.1075 104.671 11.0169 85.5809 11.0165 62.1154C11.0165 50.7595 15.4458 40.0759 23.4896 32.0322C31.5334 23.9884 42.217 19.5586 53.5729 19.5586C62.5887 19.5586 71.2043 22.3445 78.4881 27.6139C79.9174 28.6481 81.9139 28.3275 82.9473 26.8986C83.9811 25.4697 83.6609 23.4732 82.232 22.4394C73.8522 16.3763 63.9419 13.1715 53.5729 13.1715C40.5109 13.1715 28.2234 18.2655 18.9734 27.5155C9.72383 36.7659 4.62983 49.0539 4.62983 62.1154C4.62983 86.4656 22.5057 106.716 45.8229 110.442V135.508H8.07905C4.93554 135.508 2.14372 137.271 0.793153 140.111C-0.556986 142.949 -0.163994 146.228 1.8197 148.667L45.0744 201.851C46.6132 203.743 48.8949 204.828 51.3338 204.828H214.806C216.523 204.85 218.027 203.352 217.999 201.633V81.9656H218ZM137.133 70.2222C141.925 70.2222 145.824 74.1211 145.824 78.9136C145.824 83.7062 141.925 87.605 137.133 87.605C132.34 87.605 128.441 83.7062 128.441 78.9136C128.441 74.1211 132.34 70.2222 137.133 70.2222Z" fill="black"/>
<path d="M117.822 173.066L128.845 187.549C130.245 189.389 132.462 190.488 134.774 190.488H177.785C179.822 190.488 181.649 189.354 182.554 187.529C183.459 185.704 183.254 183.564 182.021 181.942L170.998 167.458C169.598 165.618 167.381 164.52 165.069 164.52H122.057C120.02 164.52 118.193 165.654 117.288 167.479C116.384 169.305 116.588 171.445 117.822 173.066ZM165.069 170.907C165.399 170.907 165.716 171.064 165.915 171.327L175.638 184.101H134.774C134.444 184.101 134.127 183.944 133.927 183.681L124.205 170.907H165.069Z" fill="black"/>
<path d="M86.27 187.294C86.27 189.057 87.6998 190.487 89.4634 190.487H109.001C110.765 190.487 112.195 189.057 112.195 187.294C112.195 185.53 110.765 184.1 109.001 184.1H89.4634C87.6998 184.1 86.27 185.53 86.27 187.294Z" fill="black"/>
<path d="M101.871 179.896C103.635 179.896 105.064 178.466 105.064 176.702C105.064 174.939 103.635 173.509 101.871 173.509H93.5781C91.8145 173.509 90.3848 174.939 90.3848 176.702C90.3848 178.466 91.8145 179.896 93.5781 179.896H101.871Z" fill="black"/>
<path d="M76.1795 49.089C76.1795 46.5301 75.1827 44.124 73.3736 42.3153C71.564 40.5058 69.1584 39.509 66.5995 39.509C64.0406 39.509 61.6345 40.5058 59.8254 42.3153L53.5728 48.5679L47.3211 42.3149C45.5116 40.5054 43.1059 39.509 40.547 39.509C37.9881 39.509 35.582 40.5058 33.7729 42.3149C31.9634 44.1245 30.967 46.5301 30.967 49.089C30.967 51.6479 31.9634 54.0536 33.7729 55.8631L40.025 62.1157L33.7729 68.3678C31.9634 70.1773 30.967 72.583 30.967 75.1419C30.967 77.7008 31.9638 80.1069 33.7729 81.9156C35.5825 83.7251 37.9881 84.7219 40.547 84.7219C43.1059 84.7219 45.512 83.7251 47.3211 81.916L53.5733 75.6635L59.8258 81.916C61.6353 83.7256 64.041 84.7219 66.5999 84.7219C69.1588 84.7219 71.5645 83.7256 73.374 81.916C75.1836 80.1065 76.1799 77.7008 76.1799 75.1419C76.1799 72.583 75.1836 70.1773 73.374 68.3678L67.1215 62.1152L73.374 55.8627C75.1831 54.0536 76.1795 51.6479 76.1795 49.089ZM68.8574 51.3469L60.3469 59.8573C59.0998 61.1044 59.0998 63.1265 60.3469 64.3731L68.8574 72.8836C69.4607 73.4869 69.7928 74.2886 69.7928 75.1415C69.7928 75.9943 69.4607 76.7965 68.8574 77.3994C68.254 78.0023 67.4523 78.3348 66.5995 78.3348C65.7466 78.3348 64.9445 78.0027 64.3416 77.3994L55.8311 68.8889C55.2325 68.2899 54.4201 67.9535 53.5733 67.9535C52.7264 67.9535 51.914 68.2899 51.3154 68.8889L42.8049 77.3994C42.202 78.0023 41.4003 78.3344 40.547 78.3344C39.6938 78.3344 38.892 78.0023 38.2891 77.3989C37.6858 76.796 37.3537 75.9943 37.3537 75.141C37.3537 74.2882 37.6858 73.486 38.2891 72.8831L46.7991 64.3727C48.0462 63.1256 48.0462 61.1036 46.7991 59.8569L38.2891 51.3465C37.6858 50.7432 37.3537 49.9414 37.3537 49.0886C37.3537 48.2358 37.6858 47.4336 38.2891 46.8307C38.892 46.2274 39.6938 45.8953 40.547 45.8953C41.4003 45.8953 42.202 46.2274 42.8049 46.8307L51.3149 55.3411C51.9136 55.9402 52.726 56.2766 53.5728 56.2766C54.4197 56.2766 55.2321 55.9402 55.8307 55.3411L64.3412 46.8307C64.9445 46.2274 65.7458 45.8953 66.5991 45.8953C67.4523 45.8953 68.2536 46.2274 68.8569 46.8311C69.4603 47.434 69.7924 48.2358 69.7924 49.089C69.7928 49.9419 69.4607 50.7436 68.8574 51.3469Z" fill="black"/>
<path d="M178.754 67.8571C185.686 67.8571 191.326 62.2172 191.326 55.2851C191.326 48.3529 185.686 42.713 178.754 42.713C171.822 42.713 166.182 48.3529 166.182 55.2851C166.182 62.2172 171.822 67.8571 178.754 67.8571ZM178.754 49.0997C182.165 49.0997 184.939 51.8745 184.939 55.2851C184.939 58.6956 182.165 61.4704 178.754 61.4704C175.344 61.4704 172.569 58.6956 172.569 55.2851C172.569 51.8745 175.344 49.0997 178.754 49.0997Z" fill="black"/>
<path d="M146.565 44.3865C147.188 45.0099 148.006 45.322 148.823 45.322C149.64 45.322 150.457 45.0103 151.081 44.3865L152.808 42.6587L154.536 44.3865C155.16 45.0103 155.977 45.322 156.794 45.322C157.611 45.322 158.429 45.0103 159.052 44.3865C160.299 43.1394 160.299 41.1178 159.052 39.8707L157.324 38.1429L159.052 36.415C160.299 35.1679 160.299 33.1459 159.052 31.8992C157.805 30.6521 155.783 30.6521 154.536 31.8992L152.808 33.627L151.081 31.8992C149.834 30.6521 147.811 30.6521 146.565 31.8992C145.318 33.1463 145.318 35.1679 146.565 36.415L148.293 38.1429L146.565 39.8707C145.317 41.1178 145.317 43.1398 146.565 44.3865Z" fill="black"/>
<path d="M12.0567 125.687C12.6801 126.31 13.4976 126.622 14.3147 126.622C15.1317 126.622 15.9492 126.31 16.5726 125.687L19.5807 122.678L22.5889 125.687C23.2122 126.31 24.0297 126.622 24.8468 126.622C25.6639 126.622 26.4814 126.31 27.1047 125.687C28.3518 124.439 28.3518 122.417 27.1047 121.171L24.0966 118.163L27.1047 115.154C28.3518 113.907 28.3518 111.885 27.1047 110.639C25.8576 109.391 23.8356 109.391 22.5889 110.639L19.5807 113.647L16.5726 110.639C15.3255 109.391 13.3034 109.391 12.0567 110.639C10.8096 111.886 10.8096 113.908 12.0567 115.154L15.0649 118.163L12.0567 121.171C10.8092 122.417 10.8092 124.439 12.0567 125.687Z" fill="black"/>
</g>
<defs>
<clipPath id="clip0_94:2560">
<rect width="218" height="218" fill="white"/>
</clipPath>
</defs>
</svg>
