<svg width="17" height="17" viewBox="0 0 17 17" fill="none" xmlns="http://www.w3.org/2000/svg">
<path d="M8.5 16.5C4.0816 16.5 0.5 12.9184 0.5 8.5C0.5 4.0816 4.0816 0.5 8.5 0.5C12.9184 0.5 16.5 4.0816 16.5 8.5C16.5 12.9184 12.9184 16.5 8.5 16.5ZM8.5 14.9C10.1974 14.9 11.8253 14.2257 13.0255 13.0255C14.2257 11.8253 14.9 10.1974 14.9 8.5C14.9 6.80261 14.2257 5.17475 13.0255 3.97452C11.8253 2.77428 10.1974 2.1 8.5 2.1C6.80262 2.1 5.17475 2.77428 3.97452 3.97452C2.77428 5.17475 2.1 6.80261 2.1 8.5C2.1 10.1974 2.77428 11.8253 3.97452 13.0255C5.17475 14.2257 6.80262 14.9 8.5 14.9ZM8.5 7.3688L10.7624 5.1056L11.8944 6.2376L9.6312 8.5L11.8944 10.7624L10.7624 11.8944L8.5 9.6312L6.2376 11.8944L5.1056 10.7624L7.3688 8.5L5.1056 6.2376L6.2376 5.1056L8.5 7.3688Z" fill="#E84300"/>
</svg>
