<svg width="17" height="16" viewBox="0 0 17 16" fill="none" xmlns="http://www.w3.org/2000/svg">
<path d="M12.5258 13.4729C11.2067 14.3096 9.6763 14.7527 8.11425 14.7502C4.07025 14.7502 0.70575 11.8402 0 8.00017C0.322522 6.25321 1.20122 4.65734 2.505 3.45067L0.15825 1.10617L1.2195 0.0449219L16.0688 14.8949L15.0075 15.9554L12.525 13.4729H12.5258ZM3.5655 4.51267C2.54625 5.43936 1.83624 6.65676 1.5315 8.00017C1.76572 9.02501 2.23595 9.98103 2.90475 10.7921C3.57356 11.6032 4.42247 12.247 5.38391 12.6722C6.34536 13.0973 7.39279 13.2922 8.44282 13.2413C9.49285 13.1903 10.5165 12.8949 11.4323 12.3787L9.91125 10.8577C9.26377 11.2655 8.4969 11.4413 7.73643 11.356C6.97596 11.2708 6.26703 10.9296 5.72593 10.3885C5.18482 9.84739 4.84367 9.13846 4.75842 8.37799C4.67317 7.61752 4.84889 6.85065 5.25675 6.20317L3.5655 4.51267ZM8.79975 9.74617L6.36825 7.31467C6.2348 7.65437 6.20339 8.02564 6.27788 8.38293C6.35237 8.74022 6.52951 9.06801 6.78759 9.32608C7.04566 9.58416 7.37345 9.7613 7.73074 9.83579C8.08803 9.91028 8.4593 9.87887 8.799 9.74542L8.79975 9.74617ZM14.7195 11.4442L13.6462 10.3717C14.1476 9.65715 14.5045 8.85156 14.697 8.00017C14.4932 7.10747 14.1099 6.26553 13.5706 5.52554C13.0313 4.78555 12.3471 4.16297 11.5597 3.69563C10.7722 3.22828 9.89797 2.92595 8.99005 2.80699C8.08213 2.68804 7.1595 2.75496 6.27825 3.00367L5.09475 1.82017C6.03 1.45267 7.04925 1.25017 8.11425 1.25017C12.1583 1.25017 15.5228 4.16017 16.2285 8.00017C15.9987 9.24945 15.4821 10.4284 14.7195 11.4442ZM7.9065 4.63117C8.38388 4.60167 8.86208 4.67397 9.30941 4.84328C9.75673 5.0126 10.163 5.27505 10.5012 5.61326C10.8394 5.95146 11.1018 6.35769 11.2711 6.80501C11.4405 7.25234 11.5128 7.73054 11.4833 8.20792L7.90575 4.63117H7.9065Z" fill="#C6CACC"/>
</svg>
