<svg width="18" height="18" viewBox="0 0 18 18" fill="none" xmlns="http://www.w3.org/2000/svg">
<path d="M16.5 9.75H15V5.4285L9.054 10.7535L3 5.412V14.25H10.5V15.75H2.25C2.05109 15.75 1.86032 15.671 1.71967 15.5303C1.57902 15.3897 1.5 15.1989 1.5 15V3C1.5 2.80109 1.57902 2.61032 1.71967 2.46967C1.86032 2.32902 2.05109 2.25 2.25 2.25H15.75C15.9489 2.25 16.1397 2.32902 16.2803 2.46967C16.421 2.61032 16.5 2.80109 16.5 3V9.75ZM3.38325 3.75L9.04575 8.7465L14.6265 3.75H3.38325ZM15.75 13.5H18V15H15.75V17.25H14.25V15H12V13.5H14.25V11.25H15.75V13.5Z" fill="#8E8E8E"/>
</svg>
