<svg width="27" height="18" viewBox="0 0 27 18" fill="none" xmlns="http://www.w3.org/2000/svg">
<path d="M9 9C9 4.02944 13.0294 0 18 0C22.9706 0 27 4.02944 27 9C27 13.9706 22.9706 18 18 18C13.0294 18 9 13.9706 9 9Z" fill="#E84300"/>
<path d="M20.3536 9.35355C20.5488 9.15829 20.5488 8.84171 20.3536 8.64645L17.1716 5.46447C16.9763 5.2692 16.6597 5.2692 16.4645 5.46447C16.2692 5.65973 16.2692 5.97631 16.4645 6.17157L19.2929 9L16.4645 11.8284C16.2692 12.0237 16.2692 12.3403 16.4645 12.5355C16.6597 12.7308 16.9763 12.7308 17.1716 12.5355L20.3536 9.35355ZM0 9.5H20V8.5H0V9.5Z" fill="white"/>
</svg>
